<?xml version="1.0" encoding="UTF-8" standalone="no"?>
<svg
   version="1.0"
   width="32pt"
   height="32pt"
   viewBox="0 0 32 32"
   preserveAspectRatio="xMidYMid"
   id="svg11"
   sodipodi:docname="JZognN01.svg"
   xmlns:inkscape="http://www.inkscape.org/namespaces/inkscape"
   xmlns:sodipodi="http://sodipodi.sourceforge.net/DTD/sodipodi-0.dtd"
   xmlns="http://www.w3.org/2000/svg"
   xmlns:svg="http://www.w3.org/2000/svg">
  <defs
     id="defs11" />
  <sodipodi:namedview
     id="namedview11"
     pagecolor="#ffffff"
     bordercolor="#000000"
     borderopacity="0.25"
     inkscape:showpageshadow="false"
     inkscape:pageopacity="0.0"
     inkscape:pagecheckerboard="0"
     inkscape:deskcolor="#d1d1d1"
     inkscape:document-units="pt"
     showgrid="true">
    <inkscape:grid
       id="grid11"
       units="pt"
       originx="0"
       originy="0"
       spacingx="0.99999997"
       spacingy="0.99999997"
       empcolor="#0099e5"
       empopacity="0.30196078"
       color="#0099e5"
       opacity="0.14901961"
       empspacing="5"
       enabled="true"
       visible="true" />
    <inkscape:page
       x="0"
       y="0"
       width="32"
       height="32"
       id="page2"
       margin="0"
       bleed="0" />
  </sodipodi:namedview>
  <metadata
     id="metadata1">
Created by potrace 1.10, written by Peter Selinger 2001-2011
</metadata>
  <g
     transform="matrix(0.01863354,0,0,-0.01863354,-11.857142,40.667849)"
     fill="#000000"
     stroke="none"
     id="g11">
    <path
       d="m 1335,2114 c 64,-151 44,-287 -70,-494 -156,-281 -185,-433 -114,-585 33,-70 107,-139 176,-165 62,-23 180,-29 238,-11 l 30,9 -36,1 c -78,2 -149,88 -149,181 0,79 27,145 114,274 93,139 107,177 107,301 0,97 -32,209 -83,284 -36,52 -173,198 -202,213 -16,9 -18,8 -11,-8 z m 126,-136 c 113,-132 166,-293 141,-429 -13,-71 -36,-119 -92,-193 -104,-138 -145,-264 -119,-368 7,-29 12,-57 11,-62 -2,-4 5,-15 15,-23 17,-13 16,-13 -3,-4 -31,15 -74,68 -97,120 -20,46 -29,189 -14,246 6,27 6,28 -5,10 -8,-13 -12,-57 -12,-120 1,-89 4,-106 30,-159 16,-33 48,-76 74,-98 52,-47 37,-46 -67,4 -74,34 -126,91 -160,174 -54,134 -21,259 155,584 50,93 81,189 83,260 l 1,35 14,-32 c 8,-18 16,-33 18,-33 6,0 -7,42 -32,108 -11,28 -16,52 -12,52 5,0 36,-33 71,-72 z"
       id="path1" />
    <path
       d="m 1720,1678 c 0,-82 -55,-209 -167,-380 -75,-117 -103,-186 -103,-255 0,-88 49,-145 135,-158 35,-6 45,-3 83,27 89,71 123,151 130,304 5,124 -8,242 -43,387 -27,110 -35,128 -35,75 z m 19,-168 c 2,24 2,24 13,5 8,-13 12,-86 12,-215 1,-190 0,-196 -25,-245 -40,-78 -52,-95 -72,-95 -10,0 -15,-4 -12,-10 3,-5 0,-10 -7,-10 -25,0 -50,26 -58,60 l -8,35 -1,-33 c -1,-26 7,-41 30,-63 l 31,-29 h -27 c -51,0 -101,21 -119,50 -20,35 -21,123 -1,180 8,23 43,85 78,138 35,53 73,113 83,132 10,19 22,37 26,40 3,3 14,25 24,50 l 19,45 6,-30 c 6,-27 7,-28 8,-5 z"
       id="path2" />
    <path
       d="m 884,739 c -3,-6 -1,-16 5,-22 14,-14 15,-157 1,-157 -5,0 -10,-7 -10,-15 0,-11 12,-15 45,-15 47,0 56,9 29,30 -10,9 -14,26 -12,49 2,29 7,37 27,39 24,4 24,3 18,-57 l -5,-61 h 39 c 28,0 39,4 39,15 0,8 -4,15 -10,15 -5,0 -10,21 -10,48 0,66 -9,76 -59,69 l -41,-5 6,39 c 6,38 6,39 -24,39 -17,0 -34,-5 -38,-11 z"
       id="path3" />
    <path
       d="m 1488,743 c -20,-5 -23,-18 -8,-28 6,-3 10,-42 10,-86 0,-46 -4,-79 -10,-79 -5,0 -10,-6 -10,-13 0,-10 13,-14 45,-13 47,1 52,5 33,24 -8,8 -11,43 -9,107 3,102 3,102 -51,88 z"
       id="path4" />
    <path
       d="m 690,694 c 0,-37 10,-43 30,-19 26,31 37,17 36,-45 -1,-41 -5,-60 -13,-60 -7,0 -13,-9 -13,-20 0,-17 7,-20 50,-20 38,0 50,4 50,15 0,9 -7,18 -15,21 -21,8 -22,124 -1,124 7,0 19,-7 26,-15 19,-23 30,-18 30,15 0,30 -1,30 -57,31 -32,1 -73,2 -90,4 -31,3 -33,1 -33,-31 z"
       id="path5" />
    <path
       d="m 1290,711 c 0,-5 7,-14 15,-21 10,-8 15,-31 15,-70 0,-42 -4,-59 -15,-64 -8,-3 -15,-11 -15,-19 0,-9 15,-13 50,-14 53,-1 61,8 34,38 -24,27 -12,47 25,41 27,-4 31,-1 31,18 0,18 -5,21 -32,18 -29,-3 -33,0 -36,25 -3,24 0,27 26,27 17,0 32,-6 36,-15 10,-26 26,-16 26,15 v 30 h -80 c -44,0 -80,-4 -80,-9 z"
       id="path6" />
    <path
       d="m 1105,678 c -29,-17 -35,-28 -35,-74 0,-63 38,-86 108,-68 36,10 27,34 -12,34 -19,0 -38,4 -41,10 -5,9 9,14 60,23 15,2 19,9 17,27 -1,14 -8,30 -15,37 -19,18 -60,24 -82,11 z m 53,-40 c -5,-15 -48,-24 -48,-10 0,14 12,22 33,22 10,0 17,-5 15,-12 z"
       id="path7" />
    <path
       d="m 1598,673 c -11,-3 -18,-14 -18,-29 0,-28 17,-31 36,-6 10,13 17,15 30,6 31,-18 26,-29 -20,-42 -47,-12 -62,-32 -46,-63 11,-20 45,-25 70,-9 9,6 17,5 21,-2 10,-16 52,1 45,19 -3,8 -6,34 -6,58 0,26 -6,50 -16,59 -15,15 -58,19 -96,9 z m 67,-104 c 0,-17 -47,-19 -52,-2 -2,6 4,13 14,16 26,7 38,2 38,-14 z"
       id="path8" />
    <path
       d="m 1744,668 c -4,-5 -1,-15 5,-21 14,-14 15,-84 1,-92 -24,-15 -9,-32 30,-32 40,0 51,12 29,34 -6,6 -9,28 -7,49 2,31 7,39 23,39 18,0 20,-6 19,-62 l -1,-63 h 32 c 40,0 49,9 29,31 -22,24 -15,93 10,97 10,2 22,-2 27,-10 12,-18 11,-75 -1,-83 -5,-3 -10,-13 -10,-21 0,-10 12,-14 40,-14 29,0 40,4 40,15 0,8 -4,15 -10,15 -5,0 -10,24 -10,54 0,31 -5,58 -12,63 -17,13 -227,13 -234,1 z"
       id="path9" />
    <path
       d="m 2041,654 c -12,-15 -21,-40 -21,-56 0,-33 39,-78 67,-78 36,0 63,13 63,29 0,12 -9,16 -37,16 -53,0 -52,21 2,29 51,8 60,31 25,66 -29,29 -74,26 -99,-6 z m 76,-20 c 4,-12 -35,-26 -48,-18 -5,2 -6,11 -2,20 6,17 44,15 50,-2 z"
       id="path10" />
    <path
       d="m 2200,660 c -11,-11 -20,-24 -20,-30 0,-13 39,-48 62,-56 10,-3 18,-10 18,-15 0,-13 -34,-11 -47,2 -13,13 -33,4 -33,-16 0,-28 63,-34 98,-9 34,23 25,55 -20,77 -21,10 -38,23 -38,28 0,12 37,12 45,-1 11,-17 35,-11 35,9 0,35 -68,43 -100,11 z"
       id="path11" />
  </g>
</svg>
